# xmcd CD database file
#
# Track frame offsets:
#	150
#	11497
#	34678
#	52757
#	70732
#	84089
#	107420
#	122793
#	137161
#	149956
#	166270
#	186837
#	203237
#	212547
#
# Disc length: 3146 seconds
#
# Revision: 0
# Processed by: cddbd v1.5.1PL2 Copyright (c) Steve Scherf et al.
# Submitted via: CDex 1.51
#
DISCID=bd0c480e
DTITLE=Pino Daniele - Passi d'autore
DYEAR=2003
DGENRE=Blues
TTITLE0=Arriveraà l'aurora
TTITLE1=Pigro
TTITLE2=Bella da Vivere
TTITLE3=La mia casa sei tu
TTITLE4=Gli stessi sguardi
TTITLE5=Nuages sulle note
TTITLE6=Dammi una seconda vita
TTITLE7=Deja vu
TTITLE8=Ali di cera
TTITLE9=La nostra estate Insieme
TTITLE10=Isola Grande
TTITLE11=Tango della buena suerte
TTITLE12=Concerto per noi due
TTITLE13=Sofia sulle note
EXTD=YEAR: 2003
EXTT0=
EXTT1=
EXTT2=
EXTT3=
EXTT4=
EXTT5=
EXTT6=
EXTT7=
EXTT8=
EXTT9=
EXTT10=
EXTT11=
EXTT12=
EXTT13=
PLAYORDER=
